# xmcd CD database file
#
# Track frame offsets:
#	150
#	15225
#	38268
#	59375
#	81708
#	103527
#	129322
#	143025
#	158013
#	184291
#	204975
#
# Disc length: 3088 seconds
#
# Revision: 0
# Processed by: cddbd v1.5.2PL0 Copyright (c) Steve Scherf et al.
# Submitted via: CDex 1.51
#
DISCID=850c0e0b
DTITLE=Tom Hook and The Big Black Dogs - Hangin' At The Big Bamboo
DYEAR=2004
DGENRE=Jazz
TTITLE0=Mama Man
TTITLE1=Early In The Mornin'
TTITLE2=Hellhound Callin' My Name
TTITLE3=MusicBiznessMan
TTITLE4=Straight
TTITLE5=Waitin' For The Floats To Arrive
TTITLE6=Back to Beale Street
TTITLE7=Nobody's There
TTITLE8=Hangin' At The Big Bamboo
TTITLE9=Please
TTITLE10=KC Boogie
EXTD=YEAR: 2004
EXTT0=
EXTT1=
EXTT2=
EXTT3=
EXTT4=
EXTT5=
EXTT6=
EXTT7=
EXTT8=
EXTT9=
EXTT10=
PLAYORDER=
